<?xml version='1.0' encoding='iso-8859-1'?>
<!DOCTYPE svg PUBLIC '-//W3C//DTD SVG 1.1//EN' 'http://www.w3.org/Graphics/SVG/1.1/DTD/svg11.dtd'>
<svg version="1.1" xmlns="http://www.w3.org/2000/svg" viewBox="0 0 286 286" xmlns:xlink="http://www.w3.org/1999/xlink" enable-background="new 0 0 286 286">
  <g>
    <path d="m224.688,158.671c16.54,0 29.995-13.456 29.995-29.995s-13.456-29.995-29.995-29.995-29.995,13.456-29.995,29.995 13.455,29.995 29.995,29.995z"/>
    <path d="m280.56,245.779h-275.12c-3,0-5.44,2.44-5.44,5.44v21.023c0,3 2.44,5.44 5.44,5.44h275.12c3,0 5.44-2.44 5.44-5.44v-21.023c0-3-2.44-5.44-5.44-5.44z"/>
    <path d="m166.246,198.433v35.346h114.314c0.872,0 1.722,0.085 2.56,0.209v-35.692c0-11.414-7.335-21.536-18.182-25.089l-.05-.016-15.865-2.627c-1.35-0.415-2.793,0.299-3.279,1.632l-18.002,49.392c-1.039,2.849-5.068,2.849-6.107,0l-18.002-49.392c-0.392-1.076-1.407-1.75-2.495-1.75-0.258,0-0.52,0.038-0.78,0.118l-15.869,2.624c-10.936,3.643-18.243,13.781-18.243,25.245z"/>
    <path d="m39.985,115.783h76.301l24.35,24.351c1.34,1.339 3.13,2.05 4.952,2.05 0.901,0 1.811-0.174 2.677-0.533 2.616-1.083 4.321-3.636 4.321-6.467v-19.438c14.686-0.766 26.399-12.955 26.399-27.828v-51.735c0-15.365-12.501-27.866-27.866-27.866h-111.134c-15.365,0-27.866,12.501-27.866,27.866v51.733c0,15.366 12.501,27.867 27.866,27.867zm6.477-37.257l25.25-25.25c3.125-3.123 8.189-3.123 11.314,0l10.843,10.844 12.2-12.2c-3.035-1.136-5.2-4.055-5.2-7.486 0-4.418 3.582-8 8-8h16.5c4.418,0 8,3.582 8,8v16.5c0,4.418-3.582,8-8,8-3.711,0-6.823-2.531-7.727-5.958l-18.116,18.114c-3.125,3.123-8.189,3.123-11.314,0l-10.843-10.843-19.593,19.593c-1.563,1.562-3.609,2.343-5.657,2.343s-4.095-0.781-5.657-2.343c-3.124-3.125-3.124-8.189 0-11.314z"/>
    <path d="m231.181,169.823c-0.687-0.749-1.692-1.126-2.708-1.126h-7.581c-1.016,0-2.021,0.377-2.708,1.126-1.064,1.159-1.218,2.834-0.463,4.143l4.052,6.109-1.897,16.004 3.736,9.938c0.364,0.999 1.778,0.999 2.142,0l3.736-9.938-1.897-16.004 4.052-6.109c0.755-1.309 0.6-2.983-0.464-4.143z"/>
  </g>
</svg>
