<?xml version='1.0' encoding='iso-8859-1'?>
<!DOCTYPE svg PUBLIC '-//W3C//DTD SVG 1.1//EN' 'http://www.w3.org/Graphics/SVG/1.1/DTD/svg11.dtd'>
<svg version="1.1" xmlns="http://www.w3.org/2000/svg" viewBox="0 0 297 297" xmlns:xlink="http://www.w3.org/1999/xlink" enable-background="new 0 0 297 297">
  <g>
    <path d="m91.797,39.231c3.276,2.498 7.952,1.87 10.451-1.403 11.115-14.564 27.974-22.916 46.252-22.916 13.043,0 25.35,4.272 35.376,12-3.068,0.924-5.303,3.768-5.303,7.137 0,4.118 3.338,7.456 7.456,7.456h16.403c4.118,0 7.456-3.338 7.456-7.456v-16.403c0-4.118-3.338-7.456-7.456-7.456-3.802,0-6.932,2.847-7.392,6.524-12.95-10.758-29.237-16.714-46.54-16.714-22.967,0-44.146,10.49-58.106,28.78-2.498,3.273-1.87,7.952 1.403,10.451z"/>
    <path d="m193.804,96.585c0,16.804 13.671,30.474 30.474,30.474 16.804,0 30.474-13.671 30.474-30.474 0-16.803-13.671-30.474-30.474-30.474-16.803-0.001-30.474,13.67-30.474,30.474z"/>
    <path d="m265.171,141.827l-.051-.017-16.119-2.668c-1.372-0.422-2.838,0.304-3.331,1.657l-18.289,50.181c-1.055,2.895-5.149,2.895-6.204,0l-18.289-50.181c-0.398-1.093-1.43-1.778-2.535-1.778-0.262,0-16.914,2.786-16.914,2.786-11.111,3.702-18.534,14.002-18.534,25.649v41.754c0,6.257 5.073,11.33 11.33,11.33h96.08c6.257,0 11.33-5.073 11.33-11.33v-41.893c-0.001-11.596-7.454-21.88-18.474-25.49z"/>
    <path d="m72.732,127.059c16.804,0 30.474-13.671 30.474-30.474 0-16.803-13.671-30.474-30.474-30.474s-30.474,13.67-30.474,30.474c0,16.803 13.67,30.474 30.474,30.474z"/>
    <path d="m132.097,209.21v-41.893c0-11.596-7.452-21.88-18.473-25.49l-.051-.017-16.119-2.668c-1.372-0.422-2.838,0.304-3.331,1.657l-18.289,50.181c-1.055,2.895-5.149,2.895-6.204,0l-18.29-50.181c-0.398-1.093-1.43-1.778-2.535-1.778-0.262,0-16.915,2.786-16.915,2.786-11.111,3.702-18.534,14.002-18.534,25.649v41.754c0,6.257 5.073,11.33 11.33,11.33h96.08c6.258-2.84217e-14 11.331-5.072 11.331-11.33z"/>
    <path d="m206.956,257.769c-3.276-2.499-7.952-1.87-10.451,1.403-11.115,14.564-27.974,22.916-46.252,22.916-13.043,0-25.35-4.272-35.376-12 3.068-0.924 5.303-3.768 5.303-7.137 0-4.118-3.338-7.456-7.456-7.456h-16.403c-4.118,0-7.456,3.338-7.456,7.456v16.403c0,4.118 3.338,7.456 7.456,7.456 3.802,0 6.932-2.847 7.392-6.524 12.951,10.758 29.237,16.714 46.54,16.714 22.967,0 44.146-10.49 58.106-28.78 2.498-3.273 1.87-7.952-1.403-10.451z"/>
    <path d="m231.347,140.245c-0.748-0.814-1.84-1.224-2.946-1.224h-8.245c-1.105,0-2.198,0.41-2.946,1.224-1.157,1.261-1.325,3.082-0.504,4.505l4.407,6.644-2.063,17.405 4.063,10.808c0.396,1.087 1.933,1.087 2.329,0l4.063-10.808-2.063-17.405 4.407-6.644c0.823-1.423 0.655-3.244-0.502-4.505z"/>
    <path d="m79.795,140.245c-0.747-0.814-1.84-1.224-2.946-1.224h-8.245c-1.105,0-2.198,0.41-2.946,1.224-1.157,1.261-1.325,3.082-0.504,4.505l4.407,6.644-2.062,17.406 4.063,10.808c0.396,1.087 1.933,1.087 2.33,0l4.063-10.808-2.063-17.405 4.407-6.644c0.821-1.424 0.653-3.245-0.504-4.506z"/>
  </g>
</svg>
