<?xml version='1.0' encoding='iso-8859-1'?>
<!DOCTYPE svg PUBLIC '-//W3C//DTD SVG 1.1//EN' 'http://www.w3.org/Graphics/SVG/1.1/DTD/svg11.dtd'>
<svg version="1.1" xmlns="http://www.w3.org/2000/svg" viewBox="0 0 297 297" xmlns:xlink="http://www.w3.org/1999/xlink" enable-background="new 0 0 297 297">
  <g>
    <path d="M148.5,62.024c17.1,0,31.012-13.912,31.012-31.012S165.6,0,148.5,0s-31.012,13.912-31.012,31.012   S131.4,62.024,148.5,62.024z"/>
    <path d="m201.361,157.156v-54.163c0-11.801-7.584-22.266-18.799-25.94l-.052-.017-8.851-2.716c-1.396-0.429-2.888,0.31-3.39,1.687l-18.612,51.067c-1.074,2.946-5.24,2.946-6.314,0l-18.612-51.067c-0.405-1.112-1.455-1.81-2.58-1.81-0.267,0-9.651,2.835-9.651,2.835-11.307,3.768-18.861,14.25-18.861,26.102v54.021c0,0.536 0.157,1.061 0.451,1.509l19.42,29.553v74.777c0,1.518 1.231,2.749 2.749,2.749h60.48c1.518,0 2.749-1.231 2.749-2.749v-74.777l19.42-29.553c0.296-0.448 0.453-0.972 0.453-1.508z"/>
    <path d="m52.175,243.045c1.957-4.455-0.069-9.652-4.523-11.609-4.46-1.961-9.653,0.069-11.609,4.523l-13.754,31.317c-1.957,4.455 0.069,9.652 4.523,11.609l31.317,13.754c1.153,0.506 2.355,0.746 3.538,0.746 3.39,0 6.621-1.967 8.071-5.27 1.957-4.455-0.069-9.652-4.523-11.609l-11.844-5.201 52.374-20.408v-18.91l-58.771,22.901 5.201-11.843z"/>
    <path d="m67.474,169.584c4.534-1.766 6.777-6.874 5.01-11.407-1.767-4.535-6.876-6.782-11.407-5.01l-31.87,12.419c-4.534,1.766-6.777,6.874-5.01,11.407l12.419,31.87c1.357,3.483 4.685,5.614 8.211,5.614 1.064,0 2.146-0.193 3.196-0.603 4.534-1.766 6.777-6.874 5.01-11.407l-4.697-12.052 57.409,25.213v-19.244l-50.323-22.101 12.052-4.699z"/>
    <path d="m260.385,240.701c-1.767-4.535-6.875-6.782-11.407-5.01-4.534,1.766-6.777,6.874-5.01,11.407l4.697,12.053-57.409-25.213v19.244l50.323,22.101-12.052,4.696c-4.534,1.766-6.777,6.874-5.01,11.407 1.357,3.483 4.685,5.615 8.211,5.614 1.064,0 2.146-0.193 3.196-0.603l31.87-12.419c4.534-1.766 6.777-6.874 5.01-11.407l-12.419-31.87z"/>
    <path d="m270.188,170.677l-31.317-13.754c-4.46-1.959-9.652,0.069-11.609,4.523s0.069,9.652 4.523,11.609l11.844,5.201-52.374,20.408v18.911l58.771-22.902-5.201,11.843c-1.957,4.455 0.069,9.652 4.523,11.609 1.153,0.506 2.355,0.746 3.538,0.746 3.39,0 6.621-1.967 8.071-5.27l13.754-31.317c1.957-4.452-0.069-9.65-4.523-11.607z"/>
    <path d="m155.568,75.322c-0.747-0.814-1.84-1.224-2.946-1.224h-8.245c-1.105,0-2.198,0.41-2.946,1.224-1.157,1.261-1.325,3.082-0.504,4.506l4.407,6.644-2.063,17.405 4.063,10.808c0.396,1.087 1.933,1.087 2.33,0l4.063-10.808-2.063-17.405 4.407-6.644c0.822-1.424 0.654-3.245-0.503-4.506z"/>
  </g>
</svg>
