<?xml version='1.0' encoding='iso-8859-1'?>
<!DOCTYPE svg PUBLIC '-//W3C//DTD SVG 1.1//EN' 'http://www.w3.org/Graphics/SVG/1.1/DTD/svg11.dtd'>
<svg version="1.1" xmlns="http://www.w3.org/2000/svg" viewBox="0 0 297 297" xmlns:xlink="http://www.w3.org/1999/xlink" enable-background="new 0 0 297 297">
  <g>
    <path d="m282.391,105.364l12.515-18.774c1.782-2.673 1.948-6.109 0.432-8.941-1.516-2.832-4.467-4.6-7.679-4.6h-23.957l-20.368,64.628h44.324c3.212,0 6.163-1.768 7.679-4.6 1.516-2.832 1.35-6.268-0.432-8.941l-12.514-18.772z"/>
    <path d="m250.854,60.931c-1.637-2.271-4.266-3.617-7.065-3.617h-62.945c-4.81,0-8.709,3.899-8.709,8.709v187.634c3.063-0.145 6-0.214 8.709-0.214 2.71,0 5.646,0.069 8.709,0.214v-131.716h38.499c3.748,0 7.078-2.398 8.262-5.955l15.737-47.208c0.885-2.657 0.44-5.577-1.197-7.847z"/>
    <path d="M72.875,74.157c20.446,0,37.079-16.633,37.079-37.079C109.954,16.633,93.321,0,72.875,0   C52.43,0,35.796,16.633,35.796,37.079C35.796,57.524,52.43,74.157,72.875,74.157z"/>
    <path d="m145.106,174.114v-50.973c0-14.11-9.067-26.622-22.476-31.014l-.062-.02-19.612-3.247c-1.669-0.514-3.453,0.37-4.053,2.017l-22.253,61.055c-1.284,3.522-6.265,3.522-7.549,0l-22.253-61.057c-0.485-1.33-1.74-2.163-3.085-2.163-0.319,0-20.58,3.389-20.58,3.389-13.519,4.505-22.551,17.037-22.551,31.209v50.804c-1.44329e-15,7.614 6.172,13.785 13.785,13.785h116.903c7.614,0 13.786-6.172 13.786-13.785z"/>
    <ellipse cx="180.843" cy="281.264" rx="55.077" ry="15.736"/>
    <path d="m81.619,87.405c-0.925-1.008-2.276-1.515-3.644-1.515h-10.2c-1.368,0-2.719,0.507-3.644,1.515-1.432,1.56-1.639,3.813-0.623,5.574l5.452,8.219-2.552,21.532 5.026,13.371c0.49,1.345 2.392,1.345 2.882,0l5.026-13.371-2.552-21.532 5.452-8.219c1.017-1.761 0.809-4.014-0.623-5.574z"/>
  </g>
</svg>
