<?xml version='1.0' encoding='iso-8859-1'?>
<!DOCTYPE svg PUBLIC '-//W3C//DTD SVG 1.1//EN' 'http://www.w3.org/Graphics/SVG/1.1/DTD/svg11.dtd'>
<svg version="1.1" xmlns="http://www.w3.org/2000/svg" viewBox="0 0 297 297" xmlns:xlink="http://www.w3.org/1999/xlink" enable-background="new 0 0 297 297">
  <g>
    <path d="m55.131,51.056c14.076,0 25.527-11.452 25.527-25.527 0-14.077-11.451-25.529-25.527-25.529-14.077,0-25.528,11.452-25.528,25.528 0,14.076 11.451,25.528 25.528,25.528z"/>
    <path d="m241.869,51.056c14.077,0 25.528-11.452 25.528-25.527 0-14.077-11.451-25.529-25.528-25.529-14.076,0-25.527,11.452-25.527,25.528 2.84217e-14,14.076 11.451,25.528 25.527,25.528z"/>
    <path d="m148.248,93.43c14.077,0 25.528-11.452 25.528-25.527 0-14.077-11.452-25.528-25.528-25.528-14.076,0-25.527,11.452-25.527,25.528 1.42109e-14,14.075 11.451,25.527 25.527,25.527z"/>
    <path d="m118.87,186.125v54.082c0,3.821 3.097,6.918 6.918,6.918h44.921c3.821,0 6.918-3.097 6.918-6.918v-54.082l13.623-20.732c0.742-1.128 1.137-2.448 1.137-3.799v-40.124c0-10.905-6.951-20.55-17.296-23.998-0.053-0.017-0.106-0.035-0.159-0.051l-6.566-2.014c-2.745-0.843-5.727,0.1-7.49,2.367l-12.626,16.239-12.626-16.239c-1.763-2.267-4.744-3.208-7.49-2.367l-6.566,2.014c-0.053,0.016-0.106,0.034-0.159,0.051-10.346,3.448-17.296,13.092-17.296,23.998v40.124c0,1.35 0.395,2.67 1.137,3.799l13.62,20.732z"/>
    <path d="m25.752,143.751v54.082c0,3.821 3.097,6.918 6.918,6.918h44.922c3.821,0 6.918-3.097 6.918-6.918v-54.082l13.623-20.732c0.742-1.128 1.137-2.448 1.137-3.799v-40.124c0-10.905-6.951-20.55-17.296-23.998-0.053-0.017-0.106-0.035-0.159-0.051l-6.566-2.014c-2.558-0.785-5.337-0.024-7.139,1.95l-12.979,14.222-12.978-14.221c-1.803-1.976-4.58-2.734-7.139-1.95l-6.567,2.014c-0.053,0.016-0.106,0.034-0.159,0.051-10.346,3.448-17.296,13.092-17.296,23.998v40.124c0,1.35 0.395,2.67 1.137,3.799l13.623,20.731z"/>
    <path d="m268.712,55.099c-0.053-0.017-0.106-0.035-0.159-0.051l-6.567-2.014c-2.688-0.823-5.603,0.06-7.383,2.233l-12.733,15.563-12.733-15.563c-1.779-2.173-4.693-3.056-7.383-2.233l-6.566,2.014c-0.053,0.016-0.106,0.034-0.159,0.051-10.346,3.448-17.296,13.092-17.296,23.998v40.124c0,1.35 0.395,2.67 1.137,3.799l13.623,20.732v54.082c0,3.821 3.097,6.918 6.918,6.918h44.922c3.821,0 6.918-3.097 6.918-6.918v-54.082l13.623-20.732c0.742-1.128 1.137-2.448 1.137-3.799v-40.125c-0.003-10.905-6.953-20.549-17.299-23.997z"/>
    <path d="m95.909,254.66c-1.901,1.152-4.1,2.262-6.65,3.298-5.216,2.119-11.339,3.702-17.971,4.681l25.693,10.651c1.589-4.069 5.189-8.801 12.961-12.813l-14.033-5.817z"/>
    <ellipse cx="55.131" cy="237.211" rx="43.53" ry="17.688"/>
    <path d="m201.549,254.931l-14.414,5.857c7.693,4.12 11.131,8.946 12.575,13.025l27.122-11.021c-7.061-0.962-13.584-2.596-19.091-4.834-2.349-0.954-4.397-1.972-6.192-3.027z"/>
    <ellipse cx="148.248" cy="279.312" rx="43.53" ry="17.688"/>
    <ellipse cx="241.869" cy="237.211" rx="43.53" ry="17.688"/>
  </g>
</svg>
