<?xml version='1.0' encoding='iso-8859-1'?>
<!DOCTYPE svg PUBLIC '-//W3C//DTD SVG 1.1//EN' 'http://www.w3.org/Graphics/SVG/1.1/DTD/svg11.dtd'>
<svg version="1.1" xmlns="http://www.w3.org/2000/svg" viewBox="0 0 297 297" xmlns:xlink="http://www.w3.org/1999/xlink" enable-background="new 0 0 297 297">
  <g>
    <path d="m102.898,252.076h91.204c0.15-2.626 0.339-5.705 0.574-9.072h-92.352c0.235,3.367 0.424,6.446 0.574,9.072z"/>
    <path d="m159.284,231.024v-57.394c0-1.364 0.399-2.698 1.148-3.838l10.53-16.024v-29.658c0-3.233-2.045-6.094-5.099-7.143l-1.706-.524-11.469,8.588c-2.482,1.858-5.894,1.858-8.377,0l-11.469-8.588-1.706,.524c-3.053,1.049-5.099,3.91-5.099,7.143v29.658l10.53,16.024c0.75,1.141 1.148,2.474 1.148,3.838v57.395h21.569z"/>
    <path d="M103.634,264.055C106.747,296.977,132.799,297,148.5,297c15.701,0,41.753-0.023,44.866-32.945H103.634z"/>
    <path d="m148.5,68.634c-4.266,0-7.737,3.471-7.737,7.737 0,4.266 3.471,7.737 7.737,7.737s7.737-3.471 7.737-7.737c0-4.266-3.471-7.737-7.737-7.737z"/>
    <path d="m148.5,0c-55.873,0-101.329,45.457-101.329,101.329 7.10543e-15,29.389 15.677,48.896 30.838,67.762 4.754,5.916 9.67,12.033 14.094,18.435 4.906,7.099 7.674,26.425 9.255,43.498h22.382v-55.304l-10.53-16.025c-0.75-1.14-1.148-2.473-1.148-3.837v-31.748c0-9.282 5.916-17.49 14.722-20.425 0.053-0.018 5.354-1.646 5.354-1.646 2.135-0.654 4.452-0.253 6.239,1.087l10.124,7.58 10.124-7.58c1.786-1.338 4.102-1.74 6.239-1.087 0,0 5.302,1.628 5.354,1.646 8.806,2.935 14.722,11.142 14.722,20.425v31.748c0,1.364-0.399,2.698-1.148,3.837l-10.53,16.025v55.304h22.382c1.581-17.073 4.349-36.399 9.255-43.498 4.424-6.401 9.341-12.519 14.094-18.435 15.161-18.866 30.838-38.373 30.838-67.762-0.002-55.872-45.458-101.329-101.331-101.329zm0,98.085c-11.973,0-21.713-9.74-21.713-21.713s9.74-21.713 21.713-21.713 21.713,9.74 21.713,21.713-9.74,21.713-21.713,21.713z"/>
  </g>
</svg>
