<?xml version="1.0" standalone="no"?>
<!DOCTYPE svg PUBLIC "-//W3C//DTD SVG 20010904//EN"
 "http://www.w3.org/TR/2001/REC-SVG-20010904/DTD/svg10.dtd">
<svg version="1.0" xmlns="http://www.w3.org/2000/svg"
 width="128.000000pt" height="128.000000pt" viewBox="0 0 128.000000 128.000000"
 preserveAspectRatio="xMidYMid meet">
<metadata>
Created by potrace 1.13, written by Peter Selinger 2001-2015
</metadata>
<g transform="translate(0.000000,128.000000) scale(0.100000,-0.100000)"
fill="#000000" stroke="none">
<path d="M1108 927 c1 -56 -1 -129 -5 -162 l-9 -60 -39 3 c-54 4 -174 37 -263
73 -41 16 -79 29 -85 29 -18 -1 30 -26 118 -61 44 -18 82 -36 85 -39 5 -8 127
-40 148 -40 7 0 21 9 32 20 20 20 47 19 35 0 -3 -5 3 -15 14 -22 12 -7 17 -16
12 -23 -5 -5 -14 -26 -20 -47 -7 -20 -19 -39 -28 -42 -12 -5 -13 -2 -8 11 5
10 10 33 13 51 3 25 1 32 -12 32 -18 0 -34 -34 -43 -88 -4 -22 -13 -36 -27
-42 -35 -13 -228 -58 -278 -65 -47 -6 -47 -6 -67 32 -11 21 -30 49 -41 63
l-20 25 10 -29 c8 -22 8 -31 -1 -37 -9 -5 -8 -14 5 -33 9 -15 21 -24 25 -22
12 8 83 -28 75 -37 -24 -24 213 15 268 44 16 9 19 8 16 -3 -11 -37 -230 -94
-268 -70 -11 6 -26 9 -35 6 -18 -7 -18 -9 -4 -37 12 -21 12 -21 -14 -4 -15 9
-44 17 -66 17 -22 0 -43 4 -46 10 -12 20 -45 11 -46 -12 -1 -16 -3 -18 -6 -7
-3 12 -21 19 -61 24 -131 16 -302 88 -337 142 -16 24 -18 25 -28 8 -8 -15 -11
-13 -23 21 -15 43 -13 52 6 30 11 -14 14 -14 28 1 16 15 18 14 27 -21 6 -21
23 -47 38 -58 39 -29 172 -74 258 -89 73 -12 76 -12 97 9 l22 22 -23 4 c-12 3
-51 10 -87 16 -95 16 -221 61 -286 102 -14 9 44 180 91 266 19 34 33 62 30 62
-2 0 -20 -27 -41 -60 -20 -33 -39 -58 -41 -56 -6 6 45 105 81 156 77 109 47
85 -44 -35 -33 -44 -72 -108 -87 -142 -15 -35 -30 -63 -33 -63 -3 0 -17 28
-31 62 l-27 61 -10 -49 c-17 -83 -8 -219 21 -302 46 -132 155 -266 268 -330
27 -15 49 -30 49 -33 0 -4 -14 -9 -32 -13 -94 -19 67 -45 272 -45 208 0 337
22 270 47 -21 8 -19 11 32 40 31 17 89 64 130 104 119 115 180 264 177 423 -2
89 -28 215 -39 194 -4 -8 -16 -47 -25 -86 -12 -50 -22 -73 -33 -73 -10 0 -12
6 -7 23 3 12 9 65 12 118 6 96 -5 156 -30 177 -9 8 -11 -13 -9 -91z"/>
</g>
</svg>
