<?xml version='1.0' encoding='iso-8859-1'?>
<!DOCTYPE svg PUBLIC '-//W3C//DTD SVG 1.1//EN' 'http://www.w3.org/Graphics/SVG/1.1/DTD/svg11.dtd'>
<svg version="1.1" xmlns="http://www.w3.org/2000/svg" viewBox="0 0 297 297" xmlns:xlink="http://www.w3.org/1999/xlink" enable-background="new 0 0 297 297">
  <g>
    <path d="m178.39,121.463l-4.329-1.328-20.422,18.463c-2.919,2.639-7.36,2.639-10.279,0l-20.422-18.463-4.329,1.328c-6.649,2.255-11.11,8.473-11.11,15.498v39.903h82v-39.903c0.001-7.025-4.46-13.243-11.109-15.498z"/>
    <path d="m148.5,83.403c9.098,0 16.5-7.402 16.5-16.501 0-9.098-7.402-16.5-16.5-16.5s-16.5,7.402-16.5,16.5c0,9.099 7.402,16.501 16.5,16.501z"/>
    <path d="m200.818,279.032h-104.636c-4.962,0-8.984,4.022-8.984,8.984s4.022,8.984 8.984,8.984h104.637c4.962,0 8.984-4.022 8.984-8.984s-4.023-8.984-8.985-8.984z"/>
    <path d="m115.029,262.385h67.433c2.293,0 4.47-0.986 5.987-2.707 31.562-35.827 73.672-93.477 73.672-146.057 0-62.651-50.97-113.621-113.621-113.621s-113.621,50.97-113.621,113.621c7.10543e-15,51.488 42.543,109.812 74.139,146.029 1.516,1.738 3.705,2.735 6.011,2.735zm33.471-225.921c17.032,0 30.889,13.857 30.889,30.889 0,17.033-13.857,30.89-30.889,30.89s-30.889-13.857-30.889-30.89c0-17.032 13.857-30.889 30.889-30.889zm-54.38,144.426v-45.922c0-13.189 8.407-24.854 20.921-29.026 0.057-0.019 0.114-0.037 0.17-0.055l8.288-2.542c2.493-0.766 5.2-0.161 7.131,1.585l17.869,16.156 17.869-16.156c1.931-1.745 4.637-2.349 7.131-1.585l8.288,2.542c0.057,0.018 0.114,0.036 0.17,0.055 12.514,4.172 20.921,15.837 20.921,29.026v45.922c0,4.086-3.312,7.399-7.399,7.399h-93.962c-4.085,0-7.397-3.312-7.397-7.399z"/>
  </g>
</svg>
