<?xml version='1.0' encoding='iso-8859-1'?>
<!DOCTYPE svg PUBLIC '-//W3C//DTD SVG 1.1//EN' 'http://www.w3.org/Graphics/SVG/1.1/DTD/svg11.dtd'>
<svg version="1.1" xmlns="http://www.w3.org/2000/svg" viewBox="0 0 297 297" xmlns:xlink="http://www.w3.org/1999/xlink" enable-background="new 0 0 297 297">
  <g>
    <path d="m174.499,100.212c0-14.336-11.663-25.999-25.999-25.999s-25.999,11.663-25.999,25.999 11.663,25.999 25.999,25.999 25.999-11.663 25.999-25.999z"/>
    <path d="m257.407,87.126h-18.212c-1.428-4.282-3.162-8.463-5.19-12.51l12.885-12.884c3.301-3.301 3.301-8.655 0-11.956l-30.804-30.804c-3.302-3.3-8.654-3.3-11.956,0l-12.884,12.885c-4.048-2.028-8.228-3.763-12.509-5.19v-18.213c0-4.669-3.785-8.454-8.454-8.454h-43.564c-4.669,0-8.454,3.785-8.454,8.454v18.212c-4.281,1.428-8.461,3.162-12.509,5.19l-12.886-12.883c-3.3-3.3-8.653-3.299-11.955,0l-30.804,30.803c-1.585,1.586-2.476,3.736-2.476,5.978 0,2.242 0.891,4.392 2.476,5.978l12.885,12.884c-2.028,4.047-3.763,8.228-5.19,12.51h-18.213c-4.669,0-8.454,3.785-8.454,8.454v43.563c0,4.669 3.785,8.454 8.454,8.454h18.212c1.428,4.282 3.162,8.462 5.19,12.509l-12.884,12.884c-1.585,1.586-2.476,3.736-2.476,5.978 0,2.243 0.891,4.392 2.476,5.978l30.804,30.803c3.302,3.3 8.654,3.3 11.956,0l1.097-1.097-.211-.321c-1.639-2.496-2.502-5.388-2.502-8.367v-45.289c0-7.639 2.407-14.841 6.607-20.774-3.08-6.892-4.808-14.517-4.808-22.541 0-30.573 24.873-55.446 55.446-55.446s55.446,24.873 55.446,55.446c0,8.002-1.718,15.607-4.782,22.484 4.184,5.906 6.581,13.085 6.581,20.712v45.407c0,2.979-0.863,5.87-2.498,8.36l-.216,.328 1.098,1.098c3.3,3.298 8.652,3.3 11.956,0l30.804-30.803c1.585-1.586 2.476-3.736 2.476-5.978 0-2.242-0.891-4.392-2.476-5.978l-12.885-12.884c2.028-4.048 3.763-8.229 5.19-12.51h18.212c4.669,0 8.454-3.785 8.454-8.454v-43.562c0.001-4.669-3.784-8.454-8.453-8.454z"/>
    <path d="m177.056,138.811l-.044-.014-7.42-2.277c-1.17-0.36-2.287,0.318-2.842,1.414-3.35,6.613-11.083,18.941-15.603,25.214-1.537,2.133-3.747,2.126-5.293,0-4.561-6.273-12.254-18.601-15.603-25.214-0.448-0.886-1.22-1.517-2.163-1.517-0.224,0-8.09,2.377-8.09,2.377-9.479,3.159-15.813,11.946-15.813,21.883v45.289c0,0.449 0.132,0.889 0.378,1.265l16.281,24.776v62.689c0,1.273 1.032,2.305 2.305,2.305h50.703c1.273,0 2.305-1.032 2.305-2.305v-62.689l16.281-24.776c0.247-0.376 0.378-0.815 0.378-1.265v-45.407c2.84217e-14-9.895-6.358-18.669-15.76-21.748z"/>
  </g>
</svg>
