<?xml version='1.0' encoding='iso-8859-1'?>
<!DOCTYPE svg PUBLIC '-//W3C//DTD SVG 1.1//EN' 'http://www.w3.org/Graphics/SVG/1.1/DTD/svg11.dtd'>
<svg version="1.1" xmlns="http://www.w3.org/2000/svg" viewBox="0 0 297 297" xmlns:xlink="http://www.w3.org/1999/xlink" enable-background="new 0 0 297 297">
  <g>
    <path d="m148.5,29.081c4.647,0 8.415-3.768 8.415-8.415v-12.251c0-4.647-3.768-8.415-8.415-8.415s-8.415,3.768-8.415,8.415v12.251c0,4.648 3.768,8.415 8.415,8.415z"/>
    <path d="m87.244,73.507h-12.252c-4.647,0-8.415,3.768-8.415,8.415s3.768,8.415 8.415,8.415h12.251c4.647,0 8.415-3.768 8.415-8.415s-3.767-8.415-8.414-8.415z"/>
    <path d="m222.007,73.507h-12.251c-4.647,0-8.415,3.768-8.415,8.415s3.768,8.415 8.415,8.415h12.251c4.647,0 8.415-3.768 8.415-8.415s-3.767-8.415-8.415-8.415z"/>
    <path d="m195.401,44.921c2.154,0 4.307-0.822 5.951-2.464l8.663-8.663c3.286-3.286 3.286-8.615 0-11.901-3.287-3.285-8.614-3.285-11.901,0l-8.662,8.662c-3.286,3.286-3.286,8.615 0,11.901 1.642,1.643 3.795,2.465 5.949,2.465z"/>
    <path d="m95.648,42.457c1.644,1.643 3.797,2.464 5.951,2.464 2.154,0 4.307-0.822 5.951-2.464 3.286-3.286 3.286-8.615 0-11.901l-8.662-8.662c-3.287-3.285-8.614-3.285-11.901,0-3.286,3.286-3.286,8.615 0,11.901l8.661,8.662z"/>
    <path d="m148.5,108.385c15.832,0 28.713-12.88 28.713-28.713 0-15.832-12.88-28.713-28.713-28.713s-28.713,12.88-28.713,28.713c0,15.833 12.881,28.713 28.713,28.713z"/>
    <path d="m180.036,122.3l-.048-.016-8.195-2.515c-1.293-0.398-2.453,0.391-3.138,1.562-3.556,6.072-12.179,17.202-17.232,22.255-2.053,2.053-3.793,2.053-5.846,0-5.186-5.186-13.833-16.094-17.232-22.255-0.53-0.96-1.347-1.675-2.389-1.675-0.247,0-8.935,2.625-8.935,2.625-10.468,3.488-17.463,13.193-17.463,24.167v50.016c0,0.496 0.145,0.982 0.418,1.397l17.98,27.362v69.233c0,1.406 1.139,2.545 2.545,2.545h55.995c1.406,0 2.545-1.14 2.545-2.545v-69.233l17.98-27.362c0.273-0.415 0.418-0.9 0.418-1.397v-50.147c0.002-10.927-7.019-20.616-17.403-24.017z"/>
  </g>
</svg>
