<?xml version="1.0" encoding="utf-8"?>
<!-- Generator: Adobe Illustrator 16.0.0, SVG Export Plug-In . SVG Version: 6.00 Build 0)  -->
<!DOCTYPE svg PUBLIC "-//W3C//DTD SVG 1.1//EN" "http://www.w3.org/Graphics/SVG/1.1/DTD/svg11.dtd">
<svg version="1.1" id="Layer_1" xmlns="http://www.w3.org/2000/svg" xmlns:xlink="http://www.w3.org/1999/xlink" x="0px" y="0px"
	 width="65px" height="65px" viewBox="0 0 400 400" enable-background="new 0 0 400 400" xml:space="preserve">
<g>
	<linearGradient id="SVGID_1_" gradientUnits="userSpaceOnUse" x1="53.7314" y1="271.4805" x2="198.521" y2="271.4805">
		<stop  offset="0" style="stop-color:#F5941F"/>
		<stop  offset="1" style="stop-color:#E77424"/>
	</linearGradient>
	<polygon fill="url(#SVGID_1_)" points="61.106,349.878 53.731,343.124 191.146,193.082 198.521,199.836 	"/>
</g>
<g>
	<linearGradient id="SVGID_2_" gradientUnits="userSpaceOnUse" x1="54.6147" y1="171.0308" x2="197.437" y2="171.0308">
		<stop  offset="0" style="stop-color:#F5941F"/>
		<stop  offset="1" style="stop-color:#E77424"/>
	</linearGradient>
	<polygon fill="url(#SVGID_2_)" points="194.334,198.587 54.615,152.981 57.718,143.474 197.437,189.081 	"/>
</g>
<g>
	<linearGradient id="SVGID_3_" gradientUnits="userSpaceOnUse" x1="197.7192" y1="225.7227" x2="374.4648" y2="225.7227">
		<stop  offset="0" style="stop-color:#F5941F"/>
		<stop  offset="1" style="stop-color:#E77424"/>
	</linearGradient>
	<polygon fill="url(#SVGID_3_)" points="371.27,259.725 197.719,201.197 200.915,191.721 374.465,250.248 	"/>
</g>
<g>
	<linearGradient id="SVGID_4_" gradientUnits="userSpaceOnUse" x1="196.7432" y1="146.0454" x2="309.1602" y2="146.0454">
		<stop  offset="0" style="stop-color:#F5941F"/>
		<stop  offset="1" style="stop-color:#E77424"/>
	</linearGradient>
	<polygon fill="url(#SVGID_4_)" points="203.257,195.295 196.743,187.707 302.646,96.796 309.16,104.384 	"/>
</g>
<g>
	<linearGradient id="SVGID_5_" gradientUnits="userSpaceOnUse" x1="123.7729" y1="112.0371" x2="199.4287" y2="112.0371">
		<stop  offset="0" style="stop-color:#F5941F"/>
		<stop  offset="1" style="stop-color:#E77424"/>
	</linearGradient>
	<polygon fill="url(#SVGID_5_)" points="190.238,191.473 123.773,36.543 132.963,32.601 199.429,187.531 	"/>
</g>
<g>
	<g>
		<g>
			
				<linearGradient id="SVGID_6_" gradientUnits="userSpaceOnUse" x1="305.3164" y1="139.835" x2="305.3164" y2="-138.2984" gradientTransform="matrix(1 0 0 -1 -106 205)">
				<stop  offset="0" style="stop-color:#F5941F"/>
				<stop  offset="1" style="stop-color:#E77424"/>
			</linearGradient>
			<path fill="url(#SVGID_6_)" d="M199.317,237.54c-18.918,0-34.308-15.392-34.308-34.308c0-18.917,15.39-34.309,34.308-34.309
				c18.917,0,34.308,15.391,34.308,34.309C233.625,222.148,218.234,237.54,199.317,237.54z M199.317,171.756
				c-17.356,0-31.478,14.12-31.478,31.477c0,17.357,14.121,31.478,31.478,31.478s31.477-14.12,31.477-31.478
				C230.794,185.876,216.674,171.756,199.317,171.756z"/>
		</g>
	</g>
	<g>
		<g>
			
				<linearGradient id="SVGID_7_" gradientUnits="userSpaceOnUse" x1="305.3164" y1="139.8335" x2="305.3164" y2="-138.2983" gradientTransform="matrix(1 0 0 -1 -106 205)">
				<stop  offset="0" style="stop-color:#F5941F"/>
				<stop  offset="1" style="stop-color:#E77424"/>
			</linearGradient>
			<circle fill="url(#SVGID_7_)" cx="199.317" cy="203.232" r="28.966"/>
		</g>
	</g>
</g>
<g>
	
		<linearGradient id="SVGID_8_" gradientUnits="userSpaceOnUse" x1="331.8945" y1="-49.7246" x2="331.8945" y2="-49.7246" gradientTransform="matrix(1 0 0 -1 -106 205)">
		<stop  offset="0" style="stop-color:#F5941F"/>
		<stop  offset="1" style="stop-color:#E77424"/>
	</linearGradient>
	<path fill="url(#SVGID_8_)" d="M225.895,254.725"/>
</g>
<g>
	<g>
		
			<linearGradient id="SVGID_9_" gradientUnits="userSpaceOnUse" x1="163.4204" y1="139.8325" x2="163.4204" y2="-138.2969" gradientTransform="matrix(1 0 0 -1 -106 205)">
			<stop  offset="0" style="stop-color:#F5941F"/>
			<stop  offset="1" style="stop-color:#E77424"/>
		</linearGradient>
		<circle fill="url(#SVGID_9_)" cx="57.42" cy="345.13" r="51.166"/>
	</g>
</g>
<g>
	<g>
		<g>
			
				<linearGradient id="SVGID_10_" gradientUnits="userSpaceOnUse" x1="234.3672" y1="139.833" x2="234.3672" y2="-138.2941" gradientTransform="matrix(1 0 0 -1 -106 205)">
				<stop  offset="0" style="stop-color:#F5941F"/>
				<stop  offset="1" style="stop-color:#E77424"/>
			</linearGradient>
			<circle fill="url(#SVGID_10_)" cx="128.368" cy="34.573" r="30.346"/>
		</g>
		<g>
			
				<linearGradient id="SVGID_11_" gradientUnits="userSpaceOnUse" x1="234.3672" y1="139.8325" x2="234.3672" y2="-138.2969" gradientTransform="matrix(1 0 0 -1 -106 205)">
				<stop  offset="0" style="stop-color:#F5941F"/>
				<stop  offset="1" style="stop-color:#E77424"/>
			</linearGradient>
			<path fill="url(#SVGID_11_)" d="M128.368,65.441c-17.021,0-30.869-13.848-30.869-30.868c0-17.021,13.848-30.869,30.869-30.869
				s30.868,13.848,30.868,30.869C159.236,51.594,145.389,65.441,128.368,65.441z"/>
		</g>
	</g>
	<g>
		<g>
			
				<linearGradient id="SVGID_12_" gradientUnits="userSpaceOnUse" x1="234.3672" y1="139.833" x2="234.3672" y2="-138.2939" gradientTransform="matrix(1 0 0 -1 -106 205)">
				<stop  offset="0" style="stop-color:#F5941F"/>
				<stop  offset="1" style="stop-color:#E77424"/>
			</linearGradient>
			<circle fill="url(#SVGID_12_)" cx="128.368" cy="34.573" r="26.723"/>
		</g>
	</g>
</g>
<g>
	<g>
		<g>
			
				<linearGradient id="SVGID_13_" gradientUnits="userSpaceOnUse" x1="163.4204" y1="139.8335" x2="163.4204" y2="-138.2988" gradientTransform="matrix(1 0 0 -1 -106 205)">
				<stop  offset="0" style="stop-color:#F5941F"/>
				<stop  offset="1" style="stop-color:#E77424"/>
			</linearGradient>
			<path fill="url(#SVGID_13_)" d="M57.42,124.927c-12.849,0-23.301,10.452-23.301,23.302c0,12.847,10.452,23.3,23.301,23.3
				c12.848,0,23.301-10.453,23.301-23.3C80.721,135.379,70.268,124.927,57.42,124.927z"/>
		</g>
	</g>
	<g>
		<g>
			
				<linearGradient id="SVGID_14_" gradientUnits="userSpaceOnUse" x1="163.4189" y1="139.8325" x2="163.4189" y2="-138.2969" gradientTransform="matrix(1 0 0 -1 -106 205)">
				<stop  offset="0" style="stop-color:#F5941F"/>
				<stop  offset="1" style="stop-color:#E77424"/>
			</linearGradient>
			<circle fill="url(#SVGID_14_)" cx="57.419" cy="148.229" r="20.878"/>
		</g>
	</g>
</g>
<g>
	<g>
		<g>
			
				<linearGradient id="SVGID_15_" gradientUnits="userSpaceOnUse" x1="411.9033" y1="139.833" x2="411.9033" y2="-138.298" gradientTransform="matrix(1 0 0 -1 -106 205)">
				<stop  offset="0" style="stop-color:#F5941F"/>
				<stop  offset="1" style="stop-color:#E77424"/>
			</linearGradient>
			<circle fill="url(#SVGID_15_)" cx="305.902" cy="100.59" r="42.679"/>
		</g>
		<g>
			
				<linearGradient id="SVGID_16_" gradientUnits="userSpaceOnUse" x1="411.9033" y1="139.833" x2="411.9033" y2="-138.2964" gradientTransform="matrix(1 0 0 -1 -106 205)">
				<stop  offset="0" style="stop-color:#F5941F"/>
				<stop  offset="1" style="stop-color:#E77424"/>
			</linearGradient>
			<path fill="url(#SVGID_16_)" d="M305.902,144.004c-23.938,0-43.413-19.477-43.413-43.414c0-23.939,19.475-43.414,43.413-43.414
				c23.939,0,43.415,19.475,43.415,43.414C349.317,124.527,329.843,144.004,305.902,144.004z"/>
		</g>
	</g>
	<g>
		<g>
			
				<linearGradient id="SVGID_17_" gradientUnits="userSpaceOnUse" x1="411.9023" y1="139.833" x2="411.9023" y2="-138.2964" gradientTransform="matrix(1 0 0 -1 -106 205)">
				<stop  offset="0" style="stop-color:#F5941F"/>
				<stop  offset="1" style="stop-color:#E77424"/>
			</linearGradient>
			<circle fill="url(#SVGID_17_)" cx="305.902" cy="100.59" r="37.584"/>
		</g>
	</g>
</g>
<g>
	<g>
		
			<linearGradient id="SVGID_18_" gradientUnits="userSpaceOnUse" x1="478.8672" y1="139.8281" x2="478.8672" y2="-138.2948" gradientTransform="matrix(1 0 0 -1 -106 205)">
			<stop  offset="0" style="stop-color:#F5941F"/>
			<stop  offset="1" style="stop-color:#E77424"/>
		</linearGradient>
		<circle fill="url(#SVGID_18_)" cx="372.867" cy="254.986" r="20.879"/>
	</g>
</g>
<linearGradient id="SVGID_19_" gradientUnits="userSpaceOnUse" x1="195.8862" y1="242.5264" x2="195.8862" y2="140.6223">
	<stop  offset="0" style="stop-color:#F5941F"/>
	<stop  offset="1" style="stop-color:#E77424"/>
</linearGradient>
<path fill="url(#SVGID_19_)" d="M195.883,255.709c-0.942,0-1.879-0.027-2.81-0.07c-0.24-0.012-0.478-0.029-0.718-0.043
	c-0.736-0.043-1.469-0.096-2.197-0.168c-0.202-0.02-0.403-0.037-0.604-0.061c-25.203-2.688-45.72-21.248-51.362-45.46
	c-0.225-0.968-0.425-1.937-0.601-2.913c-0.027-0.152-0.056-0.307-0.083-0.459c-0.163-0.941-0.3-1.887-0.415-2.834
	c-0.023-0.188-0.051-0.373-0.072-0.561c-0.106-0.914-0.181-1.832-0.242-2.748c-0.014-0.209-0.036-0.415-0.049-0.624
	c-0.063-1.103-0.096-2.207-0.096-3.309c0-0.946,0.026-1.887,0.072-2.824c0.012-0.242,0.029-0.481,0.043-0.721
	c0.043-0.734,0.097-1.464,0.167-2.19c0.021-0.209,0.042-0.416,0.065-0.625c0.091-0.851,0.196-1.698,0.322-2.539
	c0.008-0.054,0.015-0.108,0.024-0.162c4.374-28.384,28.966-50.189,58.556-50.189c1.086,0,2.167,0.035,3.243,0.092
	c0.438,0.024,0.874,0.067,1.31,0.101c0.614,0.046,1.23,0.093,1.841,0.157c0.58,0.063,1.157,0.142,1.731,0.221
	c0.433,0.06,0.868,0.119,1.302,0.186c0.69,0.112,1.378,0.235,2.064,0.37c0.266,0.053,0.538,0.107,0.804,0.164
	c0.815,0.172,1.629,0.356,2.431,0.562c0.056,0.014,0.114,0.029,0.168,0.044c11.229,2.919,21.176,9.057,28.787,17.368
	c0.097,0.105,0.192,0.209,0.288,0.314c0.523,0.581,1.037,1.173,1.538,1.776c0.185,0.221,0.365,0.447,0.549,0.672
	c8.245,10.18,13.195,23.131,13.195,37.221c0,4.79-0.585,9.445-1.662,13.909c-0.156,0.637-0.319,1.269-0.496,1.898
	c-0.071,0.261-0.145,0.519-0.219,0.777c-0.17,0.586-0.351,1.168-0.54,1.747c-0.097,0.299-0.199,0.594-0.3,0.89
	c-0.188,0.542-0.378,1.084-0.581,1.62c-0.127,0.342-0.264,0.678-0.401,1.018c-0.192,0.486-0.385,0.975-0.59,1.454
	c-0.208,0.48-0.427,0.951-0.646,1.425c-0.154,0.333-0.3,0.671-0.458,1.002c-0.4,0.822-0.813,1.634-1.249,2.435
	c-0.054,0.1-0.114,0.197-0.166,0.298c-0.401,0.724-0.81,1.44-1.238,2.147c-0.063,0.104-0.129,0.207-0.194,0.312
	c-0.434,0.707-0.881,1.405-1.346,2.093c-0.047,0.072-0.099,0.145-0.147,0.217c-0.497,0.73-1.008,1.453-1.537,2.16
	c-0.015,0.018-0.025,0.037-0.042,0.055C232.506,246.352,215.267,255.709,195.883,255.709z"/>
<circle fill="#FFFFFF" cx="195.886" cy="196.459" r="47.67"/>
<linearGradient id="SVGID_20_" gradientUnits="userSpaceOnUse" x1="167.2998" y1="196.459" x2="224.4717" y2="196.459">
	<stop  offset="0" style="stop-color:#F5941F"/>
	<stop  offset="1" style="stop-color:#E77424"/>
</linearGradient>
<circle fill="url(#SVGID_20_)" cx="195.886" cy="196.459" r="28.586"/>
</svg>
