<?xml version='1.0' encoding='iso-8859-1'?>
<!DOCTYPE svg PUBLIC '-//W3C//DTD SVG 1.1//EN' 'http://www.w3.org/Graphics/SVG/1.1/DTD/svg11.dtd'>
<svg version="1.1" xmlns="http://www.w3.org/2000/svg" viewBox="0 0 297 297" xmlns:xlink="http://www.w3.org/1999/xlink" enable-background="new 0 0 297 297">
  <g>
    <path d="m177.164,135.785c0.688,0.285 2.459,0.776 4.037-0.803l68.096-68.096c2.855-2.855 2.634-7.571-0.504-10.113-19.087-15.461-41.91-25.031-66.304-27.809-4.054-0.462-7.613,2.706-7.613,6.786v96.61c-0.001,2.237 1.6,3.14 2.288,3.425z"/>
    <path d="m259.974,78.044l-171.945,171.945c-2.903,2.903-2.616,7.712 0.635,10.219 22.43,17.299 49.795,26.723 78.514,26.805l.312,.003c71.439,0.002 129.51-58.069 129.51-129.447 0-28.862-9.426-56.36-26.807-78.89-2.507-3.251-7.316-3.539-10.219-0.635z"/>
    <path d="m33.144,223.742l9.472-9.472-36.012-35.672c5.554,16.58 14.517,31.908 26.54,45.144z"/>
    <path d="M7.313,95.154C2.58,108.499,0,122.849,0,137.784c0,2.005,0.046,4.002,0.136,5.99l56.755,56.22l27.91-27.91L7.313,95.154z"/>
    <path d="M119.948,9.983c-5.745,0.362-11.385,1.113-16.902,2.212l16.902,16.902V9.983z"/>
    <path d="M119.948,57.651L81,18.703c-10.247,4.069-19.849,9.424-28.607,15.865l67.555,67.068V57.651z"/>
    <path d="m113.803,143.082c3.546-3.545 5.653-8.139 6.059-13.081l-82.792-82.196c-8.141,8.231-15.173,17.558-20.862,27.731l82.869,82.272 14.726-14.726z"/>
  </g>
</svg>
