<?xml version='1.0' encoding='iso-8859-1'?>
<!DOCTYPE svg PUBLIC '-//W3C//DTD SVG 1.1//EN' 'http://www.w3.org/Graphics/SVG/1.1/DTD/svg11.dtd'>
<svg version="1.1" xmlns="http://www.w3.org/2000/svg" viewBox="0 0 297 297" xmlns:xlink="http://www.w3.org/1999/xlink" enable-background="new 0 0 297 297">
  <g>
    <path d="m284.318,0h-271.637c-2.073,0-3.76,1.687-3.76,3.761v14.516c0,2.074 1.687,3.761 3.76,3.761h271.638c2.074,0 3.761-1.687 3.761-3.761v-14.516c0-2.074-1.687-3.761-3.762-3.761z"/>
    <path d="m18.366,236.131c0,4.927 3.994,8.921 8.92,8.921h115.984c-11.97,2.431-21.007,13.035-21.007,25.712 0,14.467 11.77,26.237 26.237,26.237s26.237-11.77 26.237-26.237c0-12.677-9.037-23.281-21.007-25.712h115.984c4.927,0 8.92-3.994 8.92-8.921v-199.4h-260.268v199.4zm138.53,34.632c0,4.629-3.766,8.396-8.396,8.396s-8.396-3.766-8.396-8.396c0-4.629 3.766-8.396 8.396-8.396s8.396,3.767 8.396,8.396zm-8.396-195.763c16.245,0 29.461,13.216 29.461,29.461s-13.216,29.461-29.461,29.461-29.461-13.216-29.461-29.461 13.216-29.461 29.461-29.461zm-51.422,92.673c0-12.583 8.021-23.71 19.958-27.688 0.057-0.019 0.113-0.037 0.171-0.055l7.749-2.378c2.588-0.795 5.404-0.132 7.366,1.732l16.178,15.37 16.178-15.37c1.962-1.865 4.777-2.525 7.366-1.732l7.749,2.378c0.058,0.018 0.114,0.036 0.171,0.055 11.938,3.979 19.958,15.105 19.958,27.688v37.994c0,4.143-3.357,7.5-7.5,7.5h-87.844c-4.143,0-7.5-3.357-7.5-7.5v-37.994z"/>
    <path d="M148.5,118.922c7.974,0,14.461-6.487,14.461-14.461S156.474,90,148.5,90s-14.461,6.487-14.461,14.461   S140.526,118.922,148.5,118.922z"/>
    <path d="m184.922,167.673c0-6.09-3.864-11.478-9.625-13.433l-3.464-1.063-18.167,17.261c-2.895,2.75-7.438,2.75-10.332,0l-18.167-17.261-3.464,1.063c-5.761,1.955-9.625,7.343-9.625,13.433v30.494h72.844v-30.494z"/>
  </g>
</svg>
