<?xml version='1.0' encoding='iso-8859-1'?>
<!DOCTYPE svg PUBLIC '-//W3C//DTD SVG 1.1//EN' 'http://www.w3.org/Graphics/SVG/1.1/DTD/svg11.dtd'>
<svg version="1.1" xmlns="http://www.w3.org/2000/svg" viewBox="0 0 303.421 303.421" xmlns:xlink="http://www.w3.org/1999/xlink" enable-background="new 0 0 303.421 303.421">
  <g>
    <path d="m208.661,229.955v-41.887h-17.811v41.887l-31.967,31.967c-3.478,3.478-3.478,9.118 0,12.595 3.479,3.477 9.117,3.477 12.595,0l19.372-19.373v13.075c0,4.918 3.987,8.906 8.906,8.906 4.918,0 8.906-3.987 8.906-8.906v-13.075l19.372,19.373c1.739,1.739 4.018,2.608 6.298,2.608s4.558-0.87 6.298-2.608c3.478-3.478 3.478-9.117 0-12.595l-31.969-31.967z"/>
    <rect width="18.672" x="133" y="126.252" height="16.764"/>
    <rect width="18.672" x="247.839" y="63.388" height="79.628"/>
    <rect width="18.673" x="190.419" y="94.82" height="48.196"/>
    <path d="m208.661,8.906c0-4.918-3.987-8.906-8.906-8.906-4.918,0-8.906,3.987-8.906,8.906v9.43h17.811v-9.43z"/>
    <path d="m290.297,30.908h-181.084c-3.803,0-6.897,3.094-6.897,6.898v130.791c0,3.804 3.094,6.898 6.897,6.898h181.083c3.804,0 6.898-3.094 6.898-6.898v-130.791c0.001-3.804-3.093-6.898-6.897-6.898zm-123.956,119.442c0,4.051-3.283,7.334-7.334,7.334h-33.34c-4.051,0-7.334-3.283-7.334-7.334v-31.432c0-4.051 3.283-7.334 7.334-7.334h33.34c4.051,0 7.334,3.283 7.334,7.334v31.432zm57.419,0c0,4.051-3.283,7.334-7.334,7.334h-33.341c-4.051,0-7.334-3.283-7.334-7.334v-62.864c0-4.051 3.283-7.334 7.334-7.334h33.341c4.051,0 7.334,3.283 7.334,7.334v62.864zm57.419,0c0,4.051-3.283,7.334-7.334,7.334h-33.34c-4.051,0-7.334-3.283-7.334-7.334v-94.296c0-4.051 3.283-7.334 7.334-7.334h33.34c4.051,0 7.334,3.283 7.334,7.334v94.296z"/>
    <path d="M40.46,22.421c-18.877,0-34.234,15.357-34.234,34.234S21.583,90.89,40.46,90.89s34.234-15.357,34.234-34.234   S59.337,22.421,40.46,22.421z"/>
    <path d="m41.977,97.203c-18.041,0-32.718,14.677-32.718,32.718v50.673c0,4.729 0.821,9.377 2.44,13.815l7.478,20.497c0.938,2.568 1.412,5.256 1.412,7.989v72.025c0,4.694 3.806,8.5 8.5,8.5h37.105c4.694,0 8.5-3.806 8.5-8.5v-165c0.001-18.04-14.676-32.717-32.717-32.717z"/>
  </g>
</svg>
