<?xml version='1.0' encoding='iso-8859-1'?>
<!DOCTYPE svg PUBLIC '-//W3C//DTD SVG 1.1//EN' 'http://www.w3.org/Graphics/SVG/1.1/DTD/svg11.dtd'>
<svg version="1.1" xmlns="http://www.w3.org/2000/svg" viewBox="0 0 297 297" xmlns:xlink="http://www.w3.org/1999/xlink" enable-background="new 0 0 297 297">
  <g>
    <path d="m132.335,92.134c-1.36-1.856-3.525-2.953-5.826-2.953-2.301,0-4.466,1.097-5.826,2.953l-38.401,52.401c-1.608,2.195-1.847,5.108-0.616,7.535 1.23,2.427 3.72,3.957 6.442,3.957h15.788v121.714c0,3.989 3.233,7.223 7.222,7.223h30.78c3.989,0 7.223-3.233 7.223-7.223v-121.714h15.787c2.721,0 5.211-1.53 6.442-3.957 1.231-2.427 0.992-5.339-0.616-7.535l-38.399-52.401z"/>
    <path d="m51.448,134.986c-1.36-1.856-3.525-2.953-5.826-2.953-2.301,0-4.466,1.097-5.826,2.953l-38.4,52.401c-1.608,2.196-1.847,5.108-0.616,7.535 1.23,2.427 3.72,3.957 6.442,3.957h15.788v78.862c0,3.989 3.233,7.223 7.222,7.223h30.78c3.989,0 7.223-3.233 7.223-7.223v-78.862h15.788c2.722,0 5.211-1.53 6.442-3.957 1.231-2.427 0.992-5.34-0.616-7.535l-38.401-52.401z"/>
    <path d="m242.71,75.737c17.563,0 31.85-14.288 31.85-31.851s-14.288-31.85-31.85-31.85-31.851,14.288-31.851,31.85 14.289,31.851 31.851,31.851z"/>
    <path d="m277.693,91.172l-.053-.018-9.091-2.789c-1.434-0.441-2.966,0.318-3.481,1.732l-19.115,52.447c-1.103,3.026-5.382,3.026-6.485,0l-19.115-52.447c-0.416-1.142-1.494-1.858-2.65-1.858-0.274,0-9.911,2.912-9.911,2.912-11.612,3.869-19.371,14.635-19.371,26.807v55.481c0,0.551 0.161,1.09 0.464,1.55l19.945,30.352v76.799c0,1.559 1.264,2.823 2.823,2.823h62.115c1.559,0 2.823-1.264 2.823-2.823v-76.799l19.945-30.352c0.302-0.46 0.464-0.999 0.464-1.55v-55.627c1.13687e-13-12.119-7.789-22.867-19.307-26.64z"/>
    <path d="m251.017,86.05c-0.879-0.957-2.163-1.439-3.462-1.439h-9.69c-1.299,0-2.583,0.482-3.462,1.439-1.36,1.482-1.557,3.622-0.592,5.295l5.18,7.809-2.425,20.456 4.775,12.702c0.466,1.277 2.272,1.277 2.738,0l4.775-12.702-2.425-20.456 5.18-7.809c0.966-1.673 0.768-3.813-0.592-5.295z"/>
  </g>
</svg>
