<?xml version='1.0' encoding='iso-8859-1'?>
<!DOCTYPE svg PUBLIC '-//W3C//DTD SVG 1.1//EN' 'http://www.w3.org/Graphics/SVG/1.1/DTD/svg11.dtd'>
<svg version="1.1" xmlns="http://www.w3.org/2000/svg" viewBox="0 0 297 297" xmlns:xlink="http://www.w3.org/1999/xlink" enable-background="new 0 0 297 297">
  <g>
    <path d="m282.013,200.367c-5.264,7.596-14.168,12.506-23.41,12.506h-220.231c-9.242,0-17.903-4.535-23.167-12.132-0.085-0.123-0.16-0.251-0.243-0.375v87.48c0,5.055 4.098,9.153 9.153,9.153h248.745c5.055,0 9.153-4.098 9.153-9.153v-87.479c-0.083,0.124 0.085-0.123-5.68434e-14,0z"/>
    <path d="m38.372,194.568h220.23c6.898,0 11.673-6.89 9.251-13.35l-39.228-104.612c-1.446-3.856-5.133-6.411-9.251-6.411h-5.245v53c0,4.163-3.375,7.538-7.538,7.538h-116.206c-4.163,0-7.538-3.375-7.538-7.538v-53h-5.245c-4.119,0-7.805,2.555-9.251,6.411l-39.23,104.612c-2.422,6.459 2.353,13.35 9.251,13.35zm32.383-40.246h155.465c5.055,0 9.153,4.098 9.153,9.153s-4.098,9.153-9.153,9.153h-155.465c-5.055,0-9.153-4.098-9.153-9.153s4.098-9.153 9.153-9.153z"/>
    <path d="m167.449,83.714l-3.096-.95-13.135,5.63c-1.745,0.748-3.717,0.748-5.462,0l-13.135-5.63-3.096,.95c-3.556,1.217-5.94,4.549-5.94,8.313v23.63h49.803v-23.63c0.001-3.764-2.383-7.096-5.939-8.313z"/>
    <path d="m109.722,92.027c0-9.764 6.224-18.4 15.488-21.489 0.053-0.017 0.106-0.035 0.16-0.051l5.616-1.722c1.569-0.48 3.257-0.391 4.764,0.256l12.738,5.46 12.738-5.46c1.507-0.647 3.194-0.736 4.764-0.256l5.616,1.722c0.053,0.017 0.106,0.034 0.16,0.051 9.264,3.089 15.488,11.724 15.488,21.489v23.63h11.8v-115.657h-101.132v115.657h11.8v-23.63zm38.766-73.78c12.598,0 22.848,10.25 22.848,22.849 0,12.598-10.25,22.848-22.848,22.848-12.598,0-22.848-10.25-22.848-22.848-0.001-12.599 10.249-22.849 22.848-22.849z"/>
    <path d="m148.488,50.08c4.954,0 8.984-4.03 8.984-8.984 0-4.955-4.03-8.985-8.984-8.985s-8.984,4.031-8.984,8.985c-0.001,4.954 4.029,8.984 8.984,8.984z"/>
  </g>
</svg>
