<?xml version="1.0" standalone="no"?>
<!DOCTYPE svg PUBLIC "-//W3C//DTD SVG 20010904//EN"
 "http://www.w3.org/TR/2001/REC-SVG-20010904/DTD/svg10.dtd">
<svg version="1.0" xmlns="http://www.w3.org/2000/svg"
 width="424.000000pt" height="600.000000pt" viewBox="0 0 424.000000 600.000000"
 preserveAspectRatio="xMidYMid meet">
<metadata>
Created by potrace 1.13, written by Peter Selinger 2001-2015
</metadata>
<g transform="translate(0.000000,600.000000) scale(0.100000,-0.100000)"
fill="#000000" stroke="none">
<path d="M1005 5176 c-16 -7 -39 -24 -51 -37 -11 -13 -132 -255 -269 -537
-210 -435 -249 -524 -258 -582 l-11 -69 -101 -3 -100 -3 0 -270 0 -270 102 -3
c76 -2 102 -6 107 -17 2 -8 2 -45 -1 -84 l-6 -70 -101 -3 -101 -3 0 -270 0
-270 101 -3 c116 -3 115 -2 106 -90 l-4 -51 -102 -3 -101 -3 0 -270 0 -270
102 -3 c68 -2 103 -7 106 -15 2 -7 2 -38 -1 -69 l-4 -57 -102 -3 -101 -3 -3
-273 -2 -272 104 0 104 0 7 -30 c8 -38 39 -76 78 -98 30 -16 129 -17 1537 -17
l1505 0 41 24 c45 25 84 83 84 124 0 26 0 26 98 29 l97 3 0 270 0 270 -95 5
-95 5 -3 44 c-7 89 -4 91 102 91 76 0 95 3 100 16 8 20 8 498 0 518 -5 13 -24
16 -99 16 l-92 0 -7 53 c-11 93 -18 86 92 89 l97 3 3 272 2 272 -97 3 -98 3
-3 60 c-6 106 -6 105 102 105 76 0 95 3 100 16 8 20 8 498 0 518 -5 13 -24 16
-99 16 l-92 0 -7 51 c-5 39 -69 174 -266 567 -143 285 -265 524 -272 533 -8 9
-29 26 -48 38 l-35 21 -1010 0 c-819 -1 -1016 -3 -1040 -14z m2042 -56 l42
-19 261 -520 260 -521 0 -336 0 -336 -32 -32 -33 -33 -1461 -5 c-803 -3 -1480
-2 -1503 2 -24 4 -54 18 -67 31 l-23 24 -1 335 c-1 198 2 345 8 360 24 60 495
1017 509 1032 8 9 31 21 51 26 23 6 405 10 992 11 919 1 957 0 997 -19z m783
-1416 c0 -211 -2 -235 -16 -230 -9 3 -42 6 -75 6 l-59 0 1 98 c0 78 3 92 11
74 12 -23 43 -36 75 -30 15 3 18 13 18 63 0 50 -3 60 -18 63 -32 6 -63 -7 -75
-30 -8 -18 -11 3 -11 100 l-1 122 75 0 75 0 0 -236z m-3410 -29 l0 -225 -64 0
c-35 0 -71 -3 -80 -6 -14 -5 -16 18 -16 225 l0 231 80 0 80 0 0 -225z m1648
-423 c1207 3 1481 5 1500 16 13 8 27 11 30 7 4 -4 8 -134 10 -289 3 -238 1
-289 -12 -320 -30 -71 81 -66 -1571 -64 l-1485 3 -27 28 -28 27 -3 314 -3 313
56 -19 c53 -18 111 -18 1533 -16z m1762 -262 l0 -230 -80 0 -80 0 0 230 0 230
80 0 80 0 0 -230z m-3474 190 l64 0 0 -225 0 -225 -85 0 -85 0 0 223 c0 123 3
227 7 231 4 3 13 4 21 1 7 -3 43 -5 78 -5z m3254 -906 l0 -296 -32 -32 -33
-33 -1460 -6 c-803 -4 -1479 -3 -1503 2 -24 5 -54 19 -68 31 l-24 23 0 300 c0
281 1 299 17 291 10 -5 693 -10 1519 -12 1287 -2 1506 0 1540 12 21 8 40 15
42 15 1 1 2 -132 2 -295z m220 19 c0 -210 -2 -234 -16 -229 -9 3 -42 6 -75 6
l-59 0 1 98 c0 78 3 92 11 74 12 -23 43 -36 75 -30 15 3 18 13 18 63 0 50 -3
60 -18 63 -32 6 -63 -7 -75 -30 -8 -18 -11 3 -11 99 l-1 122 75 0 75 0 0 -236z
m-3410 -30 l0 -228 -80 -2 -80 -2 0 230 0 229 80 0 80 0 0 -227z m1625 -418
c1102 0 1498 3 1521 12 l32 11 6 -45 c3 -25 6 -149 6 -275 0 -175 -3 -237 -14
-263 -29 -69 94 -63 -1546 -67 -1389 -3 -1487 -2 -1516 14 -19 10 -37 31 -43
49 -7 21 -11 134 -11 315 l0 283 38 -17 c34 -16 146 -17 1527 -17z m1785 -241
l0 -236 -22 6 c-13 3 -49 6 -80 6 l-58 0 0 225 0 224 63 4 c34 2 70 4 80 5 16
2 17 -15 17 -234z m-3412 -30 l-3 -225 -80 -2 -80 -2 -3 228 -2 227 85 0 85 0
-2 -226z"/>
<path d="M2003 3675 c-69 -30 -69 -104 0 -135 45 -21 132 -27 142 -10 4 6 -8
10 -29 10 l-36 0 0 65 0 65 38 0 c27 0 33 3 22 10 -22 14 -100 11 -137 -5z"/>
<path d="M2001 2957 c-13 -6 -33 -24 -43 -38 -18 -24 -19 -29 -5 -56 9 -16 28
-35 43 -42 41 -18 118 -25 140 -13 16 10 13 11 -19 12 l-38 0 3 67 c3 62 5 68
28 74 18 5 9 7 -30 8 -30 0 -66 -5 -79 -12z"/>
<path d="M2003 2265 c-69 -30 -69 -104 0 -135 43 -20 132 -27 141 -11 3 5 0 9
-7 8 -56 -2 -57 -1 -57 68 l0 65 38 0 c27 0 33 3 22 10 -22 14 -100 11 -137
-5z"/>
<path d="M2000 1572 c-63 -31 -71 -86 -17 -126 32 -23 142 -35 160 -17 9 9 7
11 -8 10 -53 -5 -55 -3 -55 66 l0 65 38 1 c30 0 33 2 17 9 -34 14 -98 11 -135
-8z"/>
</g>
</svg>
