<?xml version='1.0' encoding='iso-8859-1'?>
<!DOCTYPE svg PUBLIC '-//W3C//DTD SVG 1.1//EN' 'http://www.w3.org/Graphics/SVG/1.1/DTD/svg11.dtd'>
<svg version="1.1" xmlns="http://www.w3.org/2000/svg" viewBox="0 0 297 297" xmlns:xlink="http://www.w3.org/1999/xlink" enable-background="new 0 0 297 297">
  <g>
    <circle cx="187.272" cy="99.563" r="15.607"/>
    <path d="m289.904,84.057h-17.793c-1.433-4.403-3.214-8.693-5.324-12.831l12.588-12.587c2.771-2.772 2.771-7.264 0-10.036l-29.029-29.029c-2.772-2.77-7.264-2.77-10.036,0l-12.588,12.588c-4.139-2.11-8.428-3.89-12.83-5.324v-17.791c0-3.919-3.177-7.096-7.096-7.096h-41.053c-3.919,0-7.096,3.177-7.096,7.096v17.793c-4.403,1.434-8.692,3.214-12.83,5.325l-12.587-12.588c-1.331-1.331-3.136-2.079-5.018-2.079s-3.686,0.747-5.018,2.078l-29.026,29.027c-2.771,2.772-2.771,7.264 0,10.035l12.587,12.588c-2.109,4.138-3.889,8.427-5.324,12.831h-17.791c-3.919,0-7.096,3.177-7.096,7.096v41.053c0,3.919 3.177,7.096 7.096,7.096h17.792c1.434,4.403 3.214,8.691 5.324,12.829l-12.587,12.588c-1.331,1.331-2.079,3.136-2.079,5.018 0,1.882 0.747,3.686 2.079,5.018l29.03,29.029c2.77,2.77 7.263,2.77 10.035,0l12.587-12.587c4.139,2.11 8.428,3.89 12.831,5.324v17.793c0,3.919 3.177,7.096 7.096,7.096h41.053c3.919,0 7.096-3.177 7.096-7.096v-17.793c4.402-1.433 8.691-3.213 12.83-5.324l12.588,12.588c2.772,2.77 7.264,2.77 10.036,0l29.029-29.029c2.771-2.772 2.771-7.264 0-10.036l-12.588-12.587c2.11-4.139 3.89-8.427 5.324-12.83h17.793c3.919,0 7.096-3.177 7.096-7.096v-41.054c-0.005-3.919-3.182-7.096-7.101-7.096zm-102.632,76.295c-26.838,0-48.673-21.834-48.673-48.672s21.835-48.673 48.673-48.673 48.672,21.835 48.672,48.673-21.834,48.672-48.672,48.672z"/>
    <path d="m112.009,217.91h-6.645c-0.307-0.798-0.635-1.589-0.983-2.37l4.7-4.701c2.771-2.771 2.771-7.263 0-10.035l-14.837-14.837c-2.77-2.768-7.263-2.77-10.035,0l-4.701,4.7c-0.781-0.348-1.572-0.676-2.37-0.983v-6.645c0-3.919-3.177-7.096-7.096-7.096h-20.981c-3.919,0-7.096,3.177-7.096,7.096v6.645c-0.798,0.307-1.589,0.635-2.37,0.983l-4.701-4.7c-2.77-2.77-7.263-2.77-10.035,0l-14.837,14.837c-2.771,2.772-2.771,7.264 0,10.035l4.7,4.701c-0.348,0.781-0.676,1.572-0.983,2.37h-6.643c-3.919,0-7.096,3.177-7.096,7.096v20.983c0,3.919 3.177,7.096 7.096,7.096h6.645c0.307,0.798 0.635,1.588 0.983,2.369l-4.7,4.701c-2.771,2.771-2.771,7.263 0,10.035l14.837,14.837c2.772,2.77 7.264,2.77 10.036,0l4.7-4.701c0.781,0.349 1.572,0.677 2.37,0.984v6.645c0,3.919 3.177,7.096 7.096,7.096h20.982c3.919,0 7.096-3.177 7.096-7.096v-6.645c0.798-0.307 1.589-0.635 2.37-0.983l4.701,4.7c2.77,2.77 7.263,2.77 10.035,0l14.837-14.837c2.771-2.772 2.771-7.264 0-10.035l-4.7-4.701c0.348-0.781 0.676-1.571 0.983-2.369h6.645c3.919,0 7.096-3.177 7.096-7.096v-20.983c-0.004-3.92-3.18-7.096-7.099-7.096zm-52.457,41.914c-13.414,0-24.328-10.914-24.328-24.328 0-13.414 10.914-24.328 24.328-24.328s24.328,10.914 24.328,24.328c-1.42109e-14,13.414-10.914,24.328-24.328,24.328z"/>
    <path d="m204.767,123.829l-4.66-1.429-12.835,6.103-12.835-6.103-4.66,1.429c-4.95,1.65-8.397,6.073-8.86,11.196 6.502,7.206 15.907,11.745 26.355,11.745 10.447,0 19.853-4.539 26.355-11.746-0.463-5.123-3.91-9.545-8.86-11.195z"/>
  </g>
</svg>
