<?xml version='1.0' encoding='iso-8859-1'?>
<!DOCTYPE svg PUBLIC '-//W3C//DTD SVG 1.1//EN' 'http://www.w3.org/Graphics/SVG/1.1/DTD/svg11.dtd'>
<svg version="1.1" xmlns="http://www.w3.org/2000/svg" viewBox="0 0 290 290" xmlns:xlink="http://www.w3.org/1999/xlink" enable-background="new 0 0 290 290">
  <g>
    <path d="m148.564,38.033h-19.438c-0.766-14.686-12.955-26.399-27.828-26.399h-63.867c-15.365,0-27.866,12.501-27.866,27.866v45.134c0,15.365 12.501,27.866 27.866,27.866h63.867c15.365,0 27.866-12.501 27.866-27.866v-10.301l24.351-24.35c2.002-2.002 2.601-5.014 1.517-7.629-1.084-2.616-3.636-4.321-6.468-4.321z"/>
    <path d="M222.75,67.686c18.661,0,33.843-15.182,33.843-33.843S241.411,0,222.75,0s-33.843,15.182-33.843,33.843   S204.089,67.686,222.75,67.686z"/>
    <path d="m259.921,84.086l-.057-.019-9.659-2.964c-1.523-0.469-3.151,0.338-3.699,1.841l-20.311,55.728c-1.172,3.215-5.719,3.215-6.89,0l-20.311-55.728c-0.442-1.214-1.588-1.975-2.815-1.975-0.291,0-0.587,0.043-0.88,0.133l-9.651,2.961c-12.339,4.111-20.583,15.55-20.583,28.484v58.953c0,0.585 0.171,1.158 0.493,1.647l21.193,32.251v81.602c0,1.657 1.343,3 3,3h66c1.657,0 3-1.343 3-3v-81.603l21.193-32.251c0.321-0.489 0.493-1.061 0.493-1.647v-59.106c-0.001-12.878-8.278-24.298-20.516-28.307z"/>
    <path d="m230.182,80.422c-0.786-0.856-1.935-1.287-3.097-1.287h-8.67c-1.162,0-2.311,0.431-3.097,1.287-1.217,1.326-1.393,3.241-0.53,4.738l4.634,6.987-2.17,18.302 4.272,11.365c0.417,1.143 2.033,1.143 2.45,0l4.272-11.365-2.17-18.302 4.634-6.987c0.866-1.497 0.689-3.412-0.528-4.738z"/>
  </g>
</svg>
