<?xml version='1.0' encoding='iso-8859-1'?>
<!DOCTYPE svg PUBLIC '-//W3C//DTD SVG 1.1//EN' 'http://www.w3.org/Graphics/SVG/1.1/DTD/svg11.dtd'>
<svg version="1.1" xmlns="http://www.w3.org/2000/svg" viewBox="0 0 297 297" xmlns:xlink="http://www.w3.org/1999/xlink" enable-background="new 0 0 297 297">
  <g>
    <path d="M83.992,93.669c23.771,0,43.109-19.338,43.109-43.109c0-23.77-19.338-43.109-43.109-43.109   c-23.77,0-43.109,19.339-43.109,43.109C40.883,74.331,60.222,93.669,83.992,93.669z"/>
    <path d="m271.276,211.842c-3.979,0-7.784,0.872-11.305,2.591l-4.599,2.244c-3.19,1.557-6.909-0.766-6.909-4.316v-21.975c0-2.652-2.15-4.802-4.802-4.802h-16.566c-3.173,0-5.401,3.003-4.629,6.081 0.532,2.122 0.806,4.311 0.806,6.515 0,14.772-12.019,26.791-26.791,26.791s-26.791-12.019-26.791-26.791c0-2.204 0.273-4.393 0.806-6.515 0.772-3.078-1.456-6.081-4.629-6.081h-18.157c-2.652,0-4.802,2.15-4.802,4.802v21.975c0,3.55-3.719,5.873-6.909,4.316l-4.599-2.244c-3.48-1.7-7.238-2.571-11.167-2.591-12.053-0.061-22.774,8.346-25.271,20.137-3.517,16.612 9.123,31.312 25.133,31.312 3.979,0 7.784-0.872 11.305-2.591l4.599-2.244c3.19-1.557 6.909,0.766 6.909,4.315v21.976c0,2.652 2.15,4.802 4.802,4.802h95.951c2.652,0 4.802-2.15 4.802-4.802v-21.976c0-3.55 3.719-5.873 6.909-4.315l4.599,2.244c3.48,1.7 7.238,2.571 11.167,2.591 12.053,0.061 22.774-8.345 25.271-20.137 3.516-16.613-9.124-31.312-25.133-31.312z"/>
    <path d="m126.91,196.391v-11.34c0-8.527 6.937-15.464 15.464-15.464h25.596v-18.969c0-16.404-10.542-30.952-26.131-36.058l-.072-.023-22.801-3.775c-1.941-0.597-4.014,0.43-4.712,2.345l-25.872,70.986c-1.493,4.095-7.284,4.095-8.777,0l-25.872-70.986c-0.564-1.546-2.023-2.515-3.586-2.515-0.371,0-23.927,3.94-23.927,3.94-15.719,5.236-26.22,19.807-26.22,36.283v59.066c0,8.852 7.176,16.027 16.027,16.027h64.015c5.058-17.347 21.093-30.063 40.052-30.063 2.309-2.84217e-14 4.584,0.182 6.816,0.546z"/>
    <path d="m93.329,107.117c-0.987-1.076-2.431-1.617-3.891-1.617h-10.891c-1.46,0-2.904,0.541-3.891,1.617-1.529,1.666-1.75,4.071-0.665,5.951l5.822,8.777-2.725,22.991 5.367,14.277c0.523,1.436 2.554,1.436 3.077,0l5.367-14.277-2.726-22.991 5.822-8.777c1.084-1.879 0.863-4.285-0.666-5.951z"/>
  </g>
</svg>
