<?xml version='1.0' encoding='iso-8859-1'?>
<!DOCTYPE svg PUBLIC '-//W3C//DTD SVG 1.1//EN' 'http://www.w3.org/Graphics/SVG/1.1/DTD/svg11.dtd'>
<svg version="1.1" xmlns="http://www.w3.org/2000/svg" viewBox="0 0 294.228 294.228" xmlns:xlink="http://www.w3.org/1999/xlink" enable-background="new 0 0 294.228 294.228">
  <g>
    <path d="m158.987,168.171c5.137,0 9.315-4.179 9.315-9.316 0-2.647-1.116-5.032-2.895-6.727-1.008,2.947-2.662,5.722-5.008,8.07-2.332,2.332-5.122,4.031-8.157,5.057 1.695,1.792 4.088,2.916 6.745,2.916z"/>
    <path d="m115.618,145.292c-1.345,4.287-2.085,8.839-2.085,13.564 0,25.064 20.391,45.454 45.454,45.454 25.063,0 45.453-20.391 45.453-45.454 0-25.063-20.391-45.453-45.453-45.453-4.694,0-9.218,0.73-13.481,2.057 0,0 16.024,16.104 16.534,16.751 13.357,1.521 23.77,12.888 23.77,26.645 0,14.791-12.033,26.825-26.824,26.825-13.801,0-25.198-10.478-26.662-23.896-0.616-0.493-16.706-16.493-16.706-16.493z"/>
    <path d="m158.987,240.45c44.991,0 81.593-36.603 81.593-81.594s-36.602-81.593-81.593-81.593c-14.837,0-28.753,3.993-40.751,10.945l13.775,13.765c8.181-3.895 17.328-6.08 26.977-6.08 34.717,0 62.962,28.245 62.962,62.962 0,34.718-28.245,62.963-62.962,62.963-34.718,0-62.963-28.245-62.963-62.963 0-9.673 2.196-18.841 6.111-27.038l-13.768-13.759c-6.97,12.01-10.974,25.942-10.974,40.798 0,44.99 36.602,81.594 81.593,81.594z"/>
    <path d="m54.316,43.896c0,5.638-4.586,10.224-10.224,10.224h-2.222l97.407,97.343c1.71,1.708 3.949,2.562 6.189,2.562 2.241,0 4.483-0.856 6.193-2.566 3.418-3.421 3.416-8.964-0.004-12.381l-97.339-97.275v2.093z"/>
    <path d="m158.987,23.615c-29.68,0-57.15,9.621-79.476,25.893l25.992,25.975c15.44-9.941 33.794-15.73 53.483-15.73 54.645,0 99.102,44.457 99.102,99.102s-44.457,99.103-99.102,99.103-99.102-44.458-99.102-99.103c0-19.704 5.798-38.07 15.752-53.518l-25.987-25.97c-16.279,22.328-25.904,49.803-25.904,79.489 0,74.572 60.669,135.241 135.241,135.241 74.571,0 135.24-60.669 135.24-135.241s-60.668-135.241-135.239-135.241z"/>
    <path d="M40.351,17.583L23.25,0.693c-1.223-1.208-3.295-0.341-3.295,1.377v5.568c0,6.715-5.444,12.159-12.159,12.159H1.939   c-1.73,0-2.591,2.096-1.36,3.312l17.267,17.063c0.362,0.358,0.851,0.559,1.36,0.559h19.786c1.069,0,1.935-0.866,1.935-1.935V18.96   C40.927,18.443,40.72,17.947,40.351,17.583z"/>
  </g>
</svg>
