<?xml version="1.0" encoding="iso-8859-1"?>
<!-- Generator: Adobe Illustrator 18.0.0, SVG Export Plug-In . SVG Version: 6.00 Build 0)  -->
<!DOCTYPE svg PUBLIC "-//W3C//DTD SVG 1.1//EN" "http://www.w3.org/Graphics/SVG/1.1/DTD/svg11.dtd">
<svg xmlns="http://www.w3.org/2000/svg" xmlns:xlink="http://www.w3.org/1999/xlink" version="1.1" id="Capa_1" x="0px" y="0px" viewBox="0 0 300.667 300.667" style="enable-background:new 0 0 300.667 300.667;" xml:space="preserve" width="45px" height="45px">
<g>
	<path d="M150.333,0c-0.001,0-0.667,0-0.668,0C68.435,0,0,66.713,0,150.333c0,83.383,68.187,150.334,149.665,150.334   c9.485,0,18.533-0.733,28.299-2.555c-0.772-1.616-1.395-3.317-1.848-5.085c-0.57-2.226-0.875-4.557-0.875-6.958v-33.444   c-3.183,4.603-6.514,8.386-9.908,11.282v-32.214c3.308,0.248,6.611,0.577,9.908,0.989v-12.978c0-6.131,1.982-11.805,5.334-16.425   c-5.065-0.666-10.148-1.172-15.242-1.504v-36.442h31.101c10.084-15.926,27.848-26.529,48.052-26.529   c13.581,0,26.061,4.793,35.849,12.769c8.157,6.647,14.432,15.51,17.919,25.66c1.584-8.73,2.414-17.72,2.414-26.9   C300.667,67.439,233.227,0,150.333,0z M224.31,55.49c-3.2,1.255-6.423,2.416-9.662,3.503c-2.142-5.35-4.258-9.913-6.446-14.136   C213.863,47.976,219.249,51.534,224.31,55.49z M104.806,94.876c10.078,2.007,20.284,3.346,30.527,4.015v36.442H99.101   C99.9,121.114,101.83,107.477,104.806,94.876z M135.333,68.972c-7.084-0.531-14.149-1.436-21.17-2.719   c4.756-10.894,11.857-23.318,21.17-30.586V68.972z M165.333,36.759c5.782,4.933,13.056,13.898,19.933,29.726   c-6.613,1.166-13.265,1.988-19.933,2.487V36.759z M90.595,45.903c-1.948,3.835-3.793,7.833-5.751,12.69   c-2.843-0.973-5.674-2-8.487-3.103C80.859,51.971,85.615,48.764,90.595,45.903z M53.833,78.525   c7.175,3.251,14.528,6.117,22.004,8.627c-3.619,15.08-5.926,31.333-6.784,48.182H30.934C33.57,114.223,41.695,94.794,53.833,78.525   z M30.934,165.333h38.119c0.858,16.849,3.164,33.102,6.784,48.182c-7.477,2.509-14.83,5.376-22.004,8.627   C41.695,205.872,33.57,186.443,30.934,165.333z M76.356,245.176c2.813-1.103,5.645-2.13,8.488-3.103   c1.947,4.829,3.791,8.83,5.752,12.691C85.615,251.904,80.858,248.696,76.356,245.176z M135.333,265   c-9.318-7.273-16.412-19.69-21.17-30.587c7.021-1.283,14.086-2.189,21.17-2.719V265z M135.333,201.775   c-10.243,0.669-20.449,2.008-30.527,4.015c-2.977-12.601-4.906-26.238-5.706-40.457h36.232V201.775z M165.333,135.333V98.891   c9.811-0.64,19.587-1.906,29.25-3.775c2.944,12.534,4.853,26.089,5.648,40.217H165.333z M230.278,135.333   c-0.85-16.693-3.119-32.803-6.681-47.764c7.903-2.604,15.667-5.615,23.237-9.044c12.138,16.27,20.263,35.698,22.899,56.808H230.278   z" fill="#14306e"/>
	<path d="M285.689,211.663h-4.357V195.65c0-20.313-16.526-36.847-36.847-36.847c-20.296,0-36.847,16.5-36.847,36.847v16.013h-4.357   c-4.421,0-8.041,3.609-8.041,8.041v66.365c0,4.446,3.604,8.041,8.041,8.041h82.406c4.425,0,8.041-3.588,8.041-8.041v-66.365   C293.729,215.243,290.077,211.663,285.689,211.663z M227.586,195.65L227.586,195.65c0-9.318,7.581-16.899,16.899-16.899   c9.307,0,16.899,7.568,16.899,16.899l0,0v15.265h-33.799V195.65z M252.298,253.661v13.19c0,4.314-3.497,7.812-7.812,7.812   c-4.315,0-7.812-3.498-7.812-7.812v-13.189c-2.933-2.313-4.822-5.891-4.822-9.916c0-6.978,5.656-12.634,12.634-12.634   c6.978,0,12.634,5.656,12.634,12.634C257.119,247.77,255.23,251.347,252.298,253.661z" fill="#14306e"/>
</g>
<g>
</g>
<g>
</g>
<g>
</g>
<g>
</g>
<g>
</g>
<g>
</g>
<g>
</g>
<g>
</g>
<g>
</g>
<g>
</g>
<g>
</g>
<g>
</g>
<g>
</g>
<g>
</g>
<g>
</g>
</svg>
