<?xml version='1.0' encoding='iso-8859-1'?>
<!DOCTYPE svg PUBLIC '-//W3C//DTD SVG 1.1//EN' 'http://www.w3.org/Graphics/SVG/1.1/DTD/svg11.dtd'>
<svg version="1.1" xmlns="http://www.w3.org/2000/svg" viewBox="0 0 297 297" xmlns:xlink="http://www.w3.org/1999/xlink" enable-background="new 0 0 297 297">
  <g>
    <path d="m291.894,231.116h-286.788c-2.815,0-5.106,2.291-5.106,5.106v12.634c0,2.815 2.291,5.106 5.106,5.106h286.788c2.815,0 5.106-2.291 5.106-5.106v-12.634c0-2.815-2.291-5.106-5.106-5.106z"/>
    <path d="m282.462,50.307c0-4.015-3.254-7.269-7.269-7.269h-253.385c-4.015,0-7.269,3.254-7.269,7.269v13.828h267.923v-13.828zm-128.451,9.255c-1.453,1.454-3.458,2.285-5.514,2.285-2.047,0-4.061-0.831-5.504-2.285-1.454-1.443-2.285-3.458-2.285-5.504 0-2.057 0.831-4.061 2.285-5.504 1.443-1.454 3.457-2.285 5.504-2.285 2.056,0 4.061,0.831 5.514,2.285 1.444,1.443 2.275,3.447 2.275,5.504-0.001,2.046-0.831,4.061-2.275,5.504z"/>
    <path d="m170.58,175.687l-18.772,10.066c-2.064,1.107-4.551,1.107-6.615,0l-18.772-10.066-4.871,1.494c-5.968,2.023-9.971,7.604-9.971,13.909v28.603h73.844v-28.603c0-6.306-4.003-11.886-9.971-13.909l-4.872-1.494z"/>
    <path d="m148.5,142.838c8.249,0 14.961-6.712 14.961-14.961s-6.712-14.961-14.961-14.961-14.961,6.712-14.961,14.961 6.712,14.961 14.961,14.961z"/>
    <path d="m97.578,191.09c0-12.367 7.883-23.304 19.615-27.215 0.054-0.018 0.107-0.035 0.161-0.052l7.749-2.377c1.783-0.548 3.715-0.359 5.36,0.523l18.036,9.671 18.036-9.671c1.646-0.883 3.577-1.071 5.36-0.523l7.749,2.377c0.054,0.017 0.107,0.034 0.161,0.052 11.732,3.911 19.615,14.848 19.615,27.215v28.603h82.95v-144.135h-267.832v144.135h83.04v-28.603zm50.922-92.174c15.969,0 28.961,12.992 28.961,28.961s-12.992,28.961-28.961,28.961-28.961-12.992-28.961-28.961 12.992-28.961 28.961-28.961z"/>
  </g>
</svg>
